# xmcd CD database file
#
# Track frame offsets:
#	150
#	27515
#	50835
#	76814
#	107025
#	134443
#	159795
#	203812
#
# Disc length: 3006 seconds
#
# Revision: 0
# Processed by: cddbd v1.4PL0 Copyright (c) Steve Scherf et al.
# Submitted via: CDex 1.51
#
DISCID=640bbc08
DTITLE=Larry Koonse - Americana
DYEAR=2002
DGENRE=Jazz
TTITLE0=Angeles Crest
TTITLE1=You and the Night and the Music
TTITLE2=Segues
TTITLE3=Changes
TTITLE4=Americana
TTITLE5=Tristeza
TTITLE6=Leisureman Blues
TTITLE7=Fax Fiction
EXTD=YEAR: 2002
EXTT0=
EXTT1=
EXTT2=
EXTT3=
EXTT4=
EXTT5=
EXTT6=
EXTT7=
PLAYORDER=
